<?xml version="1.0" standalone="no"?>
<!DOCTYPE svg PUBLIC "-//W3C//DTD SVG 20010904//EN"
 "http://www.w3.org/TR/2001/REC-SVG-20010904/DTD/svg10.dtd">
<svg version="1.0" xmlns="http://www.w3.org/2000/svg"
 width="600.000000pt" height="600.000000pt" viewBox="0 0 600.000000 600.000000"
 preserveAspectRatio="xMidYMid meet">
<metadata>
Created by potrace 1.16, written by Peter Selinger 2001-2019
</metadata>
<g transform="translate(0.000000,600.000000) scale(0.100000,-0.100000)"
fill="#000000" stroke="none">
<path d="M1920 5972 c0 -25 -6 -31 -38 -40 -62 -19 -157 -86 -202 -143 -51
-65 -72 -105 -99 -193 l-21 -68 0 -2529 0 -2528 25 -80 c31 -97 91 -189 159
-243 54 -43 139 -88 169 -88 12 0 17 -8 17 -30 l0 -30 1075 0 1075 0 0 28 c0
23 6 29 43 40 145 45 275 203 312 380 22 103 22 5003 0 5107 -37 174 -168 332
-312 377 -37 11 -43 17 -43 40 l0 28 -1080 0 -1080 0 0 -28z m374 -112 c8 -6
17 -29 20 -52 9 -55 45 -101 99 -127 44 -21 51 -21 605 -19 l561 3 31 30 c38
36 56 68 65 118 5 23 16 42 28 49 12 6 82 13 157 16 152 5 228 -8 306 -54 54
-32 120 -105 133 -147 12 -40 21 -5202 9 -5267 -16 -91 -107 -179 -227 -222
l-66 -23 -975 -3 c-1009 -3 -1058 -1 -1164 39 -65 24 -148 95 -179 153 l-22
41 0 2630 0 2630 22 40 c44 84 152 160 248 176 68 11 333 3 349 -11z"/>
</g>
</svg>
